<?xml version="1.0" standalone="no"?><!DOCTYPE svg PUBLIC "-//W3C//DTD SVG 1.1//EN" "http://www.w3.org/Graphics/SVG/1.1/DTD/svg11.dtd"><svg t="1622993445405" class="icon" viewBox="0 0 1024 1024" version="1.1" xmlns="http://www.w3.org/2000/svg" p-id="2506" xmlns:xlink="http://www.w3.org/1999/xlink" width="60" height="60"><defs><style type="text/css"></style></defs><path d="M640 96v-64h-64v192h64v-64H736v256h64v-320zM224 96v64H128v768H480v64H64v-896zM736 544l193.984 112v224L736 992l-193.984-112v-224L736 544z m0 73.92l-130.048 75.008v150.08L736 918.016l129.984-75.008v-150.08L736 617.92z" p-id="2507" fill="#ffffff"></path><path d="M736 704a64 64 0 1 1 0 128 64 64 0 0 1 0-128zM256 672v-64h-64v64zM448 608v64h-128v-64zM640 448V384h-320v64zM256 384v64h-64V384zM320 32v192h-64v-192zM544 160v-64H352v64z" p-id="2508" fill="#ffffff"></path></svg>