<?xml version="1.0" standalone="no"?><!DOCTYPE svg PUBLIC "-//W3C//DTD SVG 1.1//EN" "http://www.w3.org/Graphics/SVG/1.1/DTD/svg11.dtd"><svg t="1623047408849" class="icon" viewBox="0 0 1024 1024" version="1.1" xmlns="http://www.w3.org/2000/svg" p-id="6947" xmlns:xlink="http://www.w3.org/1999/xlink" width="128" height="128"><defs><style type="text/css"></style></defs><path d="M1024 518.321152C1024 794.775552 794.775552 1024 505.678848 1024 229.224448 1024 0 794.775552 0 518.321152 0 229.224448 229.224448 0 505.678848 0 794.775552 0 1024 229.224448 1024 518.321152zM473.48736 275.953664L486.2976 622.729216c0.006144 0.178176 0.152576 0.31744 0.329728 0.31744h50.747392a0.330752 0.330752 0 0 0 0.329728-0.31744l12.809216-346.775552a0.66048 0.66048 0 0 0-0.66048-0.685056h-75.70432a0.66048 0.66048 0 0 0-0.66048 0.68608zM512 748.731392c21.28384 0 38.537216-17.2544 38.537216-38.53824 0-21.28384-17.2544-38.537216-38.537216-38.537216-21.28384 0-38.537216 17.2544-38.537216 38.537216 0 21.28384 17.2544 38.53824 38.537216 38.53824z" p-id="6948" fill="#f4ea2a"></path></svg>